<?xml version="1.0" encoding="utf-8"?>
<!-- Generator: Adobe Illustrator 26.0.3, SVG Export Plug-In . SVG Version: 6.00 Build 0)  -->
<svg version="1.1" id="圖層_1" xmlns="http://www.w3.org/2000/svg" xmlns:xlink="http://www.w3.org/1999/xlink" x="0px" y="0px"
	 viewBox="0 0 200 200" style="enable-background:new 0 0 200 200;" xml:space="preserve">
<path d="M137.5,100c0,8.7-0.5,17-1.3,25H63.8c-0.8-8-1.6-16.3-1.6-25s0.8-17,1.6-25h72.4C137,83,137.5,91.3,137.5,100z M196.8,75
	c2.1,8,3.2,16.4,3.2,25s-1.1,17-3.2,25h-48.1c0.8-8,1.2-16.8,1.2-25c0-8.6-0.4-17-1.2-25H196.8z M192.7,62.5h-45.6
	c-3.9-24.9-11.6-45.9-21.6-59.2C156.2,11.4,181,33.6,192.7,62.5z M134.5,62.5h-69c2.4-14.2,6.1-26.8,10.5-37
	c4.1-9.2,8.7-15.9,13.1-20.1C93.5,1.2,97.1,0,100,0c2.9,0,6.5,1.2,10.9,5.4c4.4,4.2,9,10.9,13.1,20.1
	C128.4,35.7,132.1,48.3,134.5,62.5L134.5,62.5z M7.3,62.5C19,33.6,43.8,11.4,74.5,3.3c-10,13.4-17.7,34.3-21.6,59.2H7.3z M51.2,75
	c-0.8,8-1.6,16.4-1.6,25c0,8.2,0.8,17,1.6,25H3.2C1.1,117,0,108.6,0,100s1.1-17,3.2-25H51.2z M76.1,174.5
	c-4.5-10.2-8.2-22.7-10.5-37h69c-2.4,14.2-6.1,26.8-10.5,37c-4.1,9.3-8.7,15.9-13.1,20.2c-4.4,4.1-8,5.4-11.2,5.4
	c-2.5,0-6.1-1.2-10.5-5.4C84.7,190.4,80.2,183.7,76.1,174.5L76.1,174.5z M74.5,196.7c-30.6-8.1-55.5-30.3-67.2-59.2h45.6
	C56.8,162.5,64.5,183.4,74.5,196.7L74.5,196.7z M125.5,196.7c10-13.4,17.7-34.3,21.6-59.2h45.6C181,166.4,156.2,188.6,125.5,196.7
	L125.5,196.7z"/>
</svg>
