<svg width="131" height="29" viewBox="0 0 131 29" fill="none" xmlns="http://www.w3.org/2000/svg">
<path d="M29 14.5C29 14.65 29 14.75 29 14.9C29 15 29 15.1 29 15.15C29 15.35 29 15.6 28.95 15.8C28.95 15.95 28.9 16.1 28.9 16.25C28.9 16.3 28.9 16.3 28.9 16.35C28.9 16.5 28.85 16.65 28.85 16.8C28.85 16.85 28.85 16.95 28.8 17C28.8 17.1 28.75 17.2 28.75 17.3C28.4 19 27.8 20.55 26.95 22C26.6 22.6 26.2 23.15 25.75 23.7C25.65 23.8 25.6 23.9 25.5 24C25.45 24.1 25.35 24.15 25.3 24.25C25.2 24.4 25.05 24.5 24.9 24.65C24.8 24.75 24.75 24.8 24.65 24.9C24.1 25.4 23.55 25.9 22.95 26.35C22.8 26.45 22.65 26.55 22.55 26.65C20.2 28.1 17.45 29 14.5 29C6.5 29 0 22.5 0 14.5C0 13.25 0.15 12 0.5 10.8C1.65 6.45 4.75 2.85 8.85 1.15C10.6 0.4 12.5 0 14.5 0C18.45 0 22.05 1.6 24.65 4.15C24.7 4.2 24.8 4.3 24.85 4.35C26.85 6.35 28.25 8.95 28.75 11.85C28.75 11.9 28.75 11.9 28.75 11.95C28.85 12.6 28.95 13.3 28.95 14C29 14.15 29 14.3 29 14.5Z" fill="url(#paint0_linear_432_70002)"/>
<path d="M15.6 3.5501C15.6 4.2001 15.35 4.8001 14.9 5.2501C14.45 5.7001 13.85 5.9501 13.2 5.9501H13.15C12.5 5.9501 11.9 6.2501 11.45 6.6501C11 7.1001 10.75 7.7001 10.75 8.3501C10.75 9.0001 10.5 9.6001 10.05 10.0501C9.6 10.5001 9 10.7501 8.35 10.7501H0.5C1.65 6.4001 4.75 2.8001 8.85 1.1001H13.2C14.5 1.1501 15.6 2.2501 15.6 3.5501Z" fill="url(#paint1_linear_432_70002)"/>
<path d="M28.75 11.8501C28.25 11.9001 27.8 12.1001 27.5 12.4501C27.15 12.8001 26.9 13.3001 26.9 13.9001C26.9 14.4501 26.65 14.9501 26.3 15.3501C25.95 15.7001 25.45 15.9501 24.85 15.9501H24.75C23.9 15.9501 23.15 16.3001 22.6 16.8501C22.05 17.4001 21.7 18.1501 21.7 19.0001C21.7 20.7001 23.05 22.0501 24.75 22.0501H26.9C28.2 19.8501 29 17.3001 29 14.5501C29 13.6001 28.9 12.7001 28.75 11.8501Z" fill="url(#paint2_linear_432_70002)"/>
<path d="M18.35 25.1502C18.35 25.9502 19 26.6002 19.8 26.6002H22.5C23.7 25.8002 24.8 24.8002 25.7 23.7002H19.8C19 23.7002 18.35 24.3502 18.35 25.1502Z" fill="url(#paint3_linear_432_70002)"/>
<path fill-rule="evenodd" clip-rule="evenodd" d="M24.9 4.35005C24.85 4.30005 24.8 4.20005 24.7 4.15005C24.6 4.10005 24.55 4.05005 24.45 4.05005C22.95 4.05005 18.45 4.55005 13.75 9.20005C12.65 10.3001 11.75 11.4501 11 12.5001C9.14999 12.5001 7.39999 12.7501 6.74999 13.4001C5.19999 15.0001 3.94998 17.5001 3.99998 18.4001C3.99998 18.7501 4.54998 18.4501 4.74998 18.2501C6.04999 17.1001 6.89999 16.4001 7.34999 16.4501C7.49999 16.4501 8.04999 16.6501 8.69999 16.9001C8.14999 18.3501 7.94999 19.3501 7.94999 19.3501L9.69999 21.1001C9.69999 21.1001 10.65 20.9001 12.15 20.3501C12.4 20.9501 12.6 21.5001 12.6 21.7001C12.6 22.1501 11.95 23.0001 10.8 24.3001C10.6 24.5501 10.3 25.0501 10.65 25.1001C11.6 25.1501 14.1 23.9001 15.65 22.3001C16.3 21.6501 16.5 19.9001 16.55 18.0501C17.65 17.3001 18.75 16.4001 19.85 15.3001C24.55 10.6001 25 6.10005 25 4.60005C25 4.50005 25 4.40005 24.9 4.35005Z" fill="url(#paint4_linear_432_70002)"/>
<path fill-rule="evenodd" clip-rule="evenodd" d="M18.15 12.9001C17.05 12.9001 16.15 12.0001 16.15 10.9001C16.15 9.80015 17.05 8.90015 18.15 8.90015C19.25 8.90015 20.15 9.80015 20.15 10.9001C20.15 12.0501 19.25 12.9001 18.15 12.9001Z" fill="#C25AED"/>
<path fill-rule="evenodd" clip-rule="evenodd" d="M7.69997 23.8001C6.79997 24.3001 4.84997 25.2001 4.39997 24.7001C3.89997 24.2001 4.84997 22.3001 5.29996 21.4001C5.44997 21.1001 5.34997 20.9501 5.04996 21.0501C4.49996 21.2501 3.49996 21.7001 2.44996 22.7501C-0.100035 25.2501 -0.200035 28.0001 0.449965 28.6501C1.09996 29.3001 3.84997 29.1501 6.34997 26.6501C7.39997 25.6001 7.84997 24.6001 8.04997 24.0001C8.14997 23.7501 7.94997 23.6501 7.69997 23.8001Z" fill="url(#paint5_linear_432_70002)"/>
<path d="M47.6 12.8501C48.4 9.90014 48.75 6.80014 49.15 3.55015V3.40015H45.65V3.50015C45.6 3.95015 45.55 4.40015 45.5 4.85015C44.55 12.9501 43.75 19.9001 33.85 23.5001L33.65 23.5501L33.8 23.7001C34.5 24.3001 35.25 25.4001 35.5 26.1001L35.55 26.2001L35.65 26.1501C40.3 24.3501 43.6 21.6001 45.65 17.7001C47.15 22.0001 49.9 24.6001 54.25 25.9501L54.35 26.0001L54.4 25.9001C54.95 25.0001 55.9 23.8001 56.6 23.2001L56.75 23.0501L56.55 23.0001C51.3 21.8001 48.45 18.5501 47.6 12.8501Z" fill="#9E20D3"/>
<path d="M53.9501 8.1C53.1501 10.2 51.7001 13.1 50.5001 14.95L50.4501 15.05L53.0501 16.25L53.1001 16.15C54.1501 14.65 55.6501 12.2 57.2001 9.35L57.2501 9.25L54.0001 8L53.9501 8.1Z" fill="#9E20D3"/>
<path d="M37.95 16.15V16.3L41.4 14.95V14.85C41.15 12.95 40.45 9.85 39.85 7.6V7.5L36.65 8.55V8.65C37.2 11.05 37.8 14.25 37.95 16.15Z" fill="#9E20D3"/>
<path fill-rule="evenodd" clip-rule="evenodd" d="M60.55 18.5C60.3 20.65 59.9 22.85 58.25 24.5L58.15 24.6L58.3 24.7C58.8 25 59.85 25.85 60.2 26.35L60.3 26.45L60.4 26.35C61.35 25.35 62.1 24.05 62.6 22.55H66.55L66.5 23.2C66.5 23.4 66.45 23.4 66.25 23.4H64.55H64.35L64.4 23.55C64.65 24.25 64.85 25.2 64.85 25.85V25.95H64.95C66.3 25.95 67.35 25.9 68.15 25.5C69.05 25.1 69.3 24.35 69.4 23.2L70.4 14.05H61.05L60.55 18.5ZM63.55 17.2L63.65 16.3H67.2L67.1 17.2H63.55ZM66.75 20.3001L66.85 19.4001H63.3L63.15 20.3001H66.75Z" fill="#9E20D3"/>
<path d="M75.05 14.8H72.15L71.4 21.95H74.25L75.05 14.8Z" fill="#9E20D3"/>
<path d="M76.25 22.9001C76.25 23.1501 76.2 23.2001 75.8 23.2501C74.65 23.2501 73.7 23.2501 72.85 23.2001H72.65L72.75 23.4001C73.15 24.0501 73.55 25.2501 73.65 25.9501V26.0501H73.75C75.35 26.0501 76.65 26.0001 77.7 25.5501C78.85 25.1001 79.15 24.2501 79.25 23.0001L80.2001 14.0501V13.9001H77.15L76.25 22.9001Z" fill="#9E20D3"/>
<path fill-rule="evenodd" clip-rule="evenodd" d="M76.4 4.6501H82.6L82.4 7.05009H79.1C79.4 7.50009 79.65 7.90009 79.8 8.20009L79.85 8.30009L77.7 9.65009L78 9.75009L77.9 9.90009C77.75 10.0501 77.6 10.2126 77.45 10.3751C77.3 10.5376 77.15 10.7001 77 10.8501H82.05L81.8 13.3001H59.4L59.65 10.8501H64.65C64.4986 10.585 64.3184 10.3199 64.153 10.0766C64.1 9.99862 64.0486 9.92289 64 9.85009L63.9 9.70009L66.55 8.75009C66.35 8.30009 66.1 7.85009 65.85 7.55009L65.75 7.45009L66.55 7.05009H64.8C64 8.10009 63.1 9.15009 62.05 10.1001L61.95 10.1501L61.85 10.1001C61.3 9.60009 60.2 8.85009 59.6 8.50009L59.45 8.40009L59.6 8.30009C61.25 7.10009 62.9 5.0501 63.95 3.0001L64 2.9001L66.9 3.7001L66.85 3.8501L66.85 3.85011C66.7 4.10011 66.55 4.3501 66.4 4.6501H71.55L71.3 6.95009C72.35 5.8001 73.25 4.4001 73.85 3.0001L73.95 2.8501L76.9 3.6001L76.85 3.7501L76.4 4.6501ZM69.9 8.2501L70.05 8.1501C70.45 7.8501 70.85 7.4501 71.3 7.0001H68.7C69.1 7.5501 69.4 8.1001 69.5 8.5001L69.55 8.6001L67.55 9.7001C67.8 10.0501 68.05 10.4501 68.2 10.8001H73.5C73.8707 10.3471 74.2753 9.75839 74.6579 9.20165C74.7398 9.08245 74.8207 8.96472 74.9 8.8501L74.95 8.8001L77.05 9.4501C76.8 8.9001 76.35 8.2501 76 7.8001L75.9 7.7001L76.95 7.0501H74.95C74.1 8.3501 73.15 9.3501 72.5 9.9501L72.4 10.0001L72.3 9.9501C71.8 9.5001 70.7 8.7001 70.05 8.3501L69.9 8.2501Z" fill="#9E20D3"/>
<path fill-rule="evenodd" clip-rule="evenodd" d="M106.65 12.4L106.8 12.3L106.65 12.2C105.5 11.4 104.3 10.1 103.5 8.75H106.45L106.7 6.05H100.7C101.05 5.45 101.3 4.9 101.5 4.35L101.55 4.25L99 3.5L98.95 3.6C98.6 4.45 98.15 5.25 97.65 6.05H93.6L93.3 8.75H95.55C94.65 9.7 93.6 10.55 92.45 11.25L93.2 4.1H85.25L84.4 12.2V12.35H87.75L86.85 21.15L85.95 21.4L86.75 13.9H84.35L83.45 22C83.3 22.025 83.1375 22.0625 82.975 22.1C82.8125 22.1375 82.65 22.175 82.5 22.2H82.4L82.85 25.15L83 25.1C84.9 24.6 88.65 23.55 92.45 22.45L92.55 22.4L92.4 19.7L89.65 20.4L89.95 17.45H91.95L92.25 14.7H90.25L90.5 12.35H92.3C92.6 13.05 92.9 13.9 93 14.3L93.05 14.45L93.2 14.35C94 13.85 94.85 13.25 95.85 12.4L95.75 13.45H102.25L102.4 12.1C103.1 13.15 103.8 13.9 104.5 14.5L104.525 14.525L104.5 14.55H92.65L92.4 17.15H94.75C94.2 18.65 93.65 20 93.2 21L93.1 21.15H101.15C100.85 22.45 100.55 23.2 100.2 23.45C99.9 23.65 99.65 23.65 99.1 23.65H99.1C98.7 23.65 96.65 23.65 94.75 23.5H94.5L94.65 23.7C95.1 24.35 95.4 25.35 95.4 26.1V26.2H95.5C96.35 26.25 97.25 26.3 98.05 26.3C98.7 26.3 99.25 26.3 99.7 26.25C100.95 26.2 101.7 26 102.35 25.35C103.15 24.65 103.65 23.15 104.25 19.8C104.35 19.45 104.45 18.75 104.45 18.7V18.55H97C97.2 18.05 97.4 17.55 97.55 17.15H105.55L105.8 14.55H104.55L104.525 14.525L104.55 14.5C105.1 13.85 106 12.85 106.65 12.4ZM101.55 11H97.25C98 10.2 98.6 9.45001 99.05 8.75001H100.5C100.75 9.50001 101.1 10.25 101.55 11ZM89.95 9.69997L90.25 6.79997H87.5L87.2 9.69997H89.95Z" fill="#9E20D3"/>
<path d="M115.45 20.25L115.15 17.4L115 17.45C114.6 17.6 114.25 17.7 113.85 17.85C113.5 17.95 113.2 18.1 112.85 18.2L113.45 11.95H115.5L115.8 8.95H113.75L114.3 3.5H111.25L110.7 9H108.35L108.05 12H110.4L109.65 19.3C108.6 19.65 107.65 19.95 106.85 20.2L106.75 20.25L107.45 23.45L107.6 23.4C109.9 22.55 112.85 21.4 115.35 20.4L115.45 20.25Z" fill="#9E20D3"/>
<path fill-rule="evenodd" clip-rule="evenodd" d="M127.4 21.0501L127.25 20.8501L127.2 21.1001C127.1 21.9001 127 22.6001 126.95 22.9001L126.925 22.9626C126.841 23.1749 126.791 23.3001 126.7 23.3001C126.6 23.3501 126.4 23.3501 126.25 23.3501H125.6C125.4 23.3501 125.3 23.3501 125.25 23.3001C125.2 23.2501 125.2 23.0501 125.25 22.8001L125.55 19.9001H128.05L128.8 12.3H116.95L116.2 19.9001H118.2C117.65 21.9501 116.65 23.1001 112.95 23.8001L112.75 23.8501L112.9 24.0001C113.4 24.5001 113.95 25.5501 114.15 26.1501L114.2 26.2501L114.3 26.2001C119.05 25.0501 120.45 23.0001 121.15 19.8501H122.7L122.4 22.6501C122.25 24.2001 122.45 24.7501 122.9 25.1501C123.35 25.6001 124.2 25.7501 124.75 25.7501H126.3C126.8 25.7501 127.5 25.6501 127.85 25.5001C128.35 25.3001 128.75 25.0001 129 24.5501C129.25 24.1501 129.45 23.2001 129.6 22.2001V22.1001L129.5 22.0501C128.75 21.9501 127.8 21.4501 127.4 21.0501ZM125.25 17.05L125.15 17.85H119.15L119.25 17.05H125.25ZM125.4 15.15L125.5 14.35H119.5L119.4 15.15H125.4Z" fill="#9E20D3"/>
<path fill-rule="evenodd" clip-rule="evenodd" d="M127.7 8.4C127.6 8.65 127.45 8.9 127.3 9.1H130.3L130.05 11.7H116.05L116.3 9.1H119.2C119.189 9.04478 119.178 8.98896 119.167 8.93279C119.077 8.48035 118.983 8.00583 118.85 7.65L118.8 7.55L120.2 7.25H117.1L117.35 4.7H122.1C122.072 4.53115 122.028 4.37814 121.986 4.23205C121.953 4.11858 121.922 4.00929 121.9 3.9L121.8 3.55L124.8 3V3.15C124.824 3.23115 124.85 3.31625 124.876 3.40359C125.012 3.8544 125.166 4.36492 125.25 4.7H129.95L129.7 7.25H126.55L128.2 7.55L128.1 7.7C128.025 7.825 127.962 7.9375 127.9 8.05001C127.837 8.1625 127.775 8.275 127.7 8.4ZM121.95 9.09999H124.5C124.8 8.49998 125.1 7.79998 125.3 7.24998H121.45C121.65 7.84998 121.85 8.54998 121.95 9.09999Z" fill="#9E20D3"/>
<defs>
<linearGradient id="paint0_linear_432_70002" x1="14.4976" y1="35.0025" x2="35.001" y2="14.4992" gradientUnits="userSpaceOnUse">
<stop offset="0.08" stop-color="#9E20D3"/>
<stop offset="0.3739" stop-color="#AD39DE"/>
<stop offset="0.7305" stop-color="#BC51E9"/>
<stop offset="0.95" stop-color="#C25AED"/>
</linearGradient>
<linearGradient id="paint1_linear_432_70002" x1="-0.0563588" y1="-11.2606" x2="-7.06136" y2="13.2345" gradientUnits="userSpaceOnUse">
<stop offset="0.35" stop-color="#DC95FD"/>
<stop offset="0.4995" stop-color="#D88CFB"/>
<stop offset="0.7425" stop-color="#CD74F4"/>
<stop offset="0.95" stop-color="#C25AED"/>
</linearGradient>
<linearGradient id="paint2_linear_432_70002" x1="24.8649" y1="-5.20531" x2="2.10518" y2="11.4436" gradientUnits="userSpaceOnUse">
<stop offset="0.35" stop-color="#DC95FD"/>
<stop offset="0.4995" stop-color="#D88CFB"/>
<stop offset="0.7425" stop-color="#CD74F4"/>
<stop offset="0.95" stop-color="#C25AED"/>
</linearGradient>
<linearGradient id="paint3_linear_432_70002" x1="4.8936" y1="5.96806" x2="2.35181" y2="29.2861" gradientUnits="userSpaceOnUse">
<stop offset="0.35" stop-color="#DC95FD"/>
<stop offset="0.4995" stop-color="#D88CFB"/>
<stop offset="0.7425" stop-color="#CD74F4"/>
<stop offset="0.95" stop-color="#C25AED"/>
</linearGradient>
<linearGradient id="paint4_linear_432_70002" x1="16.037" y1="30.5785" x2="33.6254" y2="13.0735" gradientUnits="userSpaceOnUse">
<stop offset="0.07" stop-color="#E4A8FF"/>
<stop offset="0.1046" stop-color="#E8B3FF"/>
<stop offset="0.1953" stop-color="#F0CAFF"/>
<stop offset="0.3005" stop-color="#F7DBFF"/>
<stop offset="0.4274" stop-color="#FCE8FF"/>
<stop offset="0.5981" stop-color="#FEEFFF"/>
<stop offset="1" stop-color="#FFF1FF"/>
</linearGradient>
<linearGradient id="paint5_linear_432_70002" x1="3.55879" y1="31.8055" x2="9.82279" y2="25.5326" gradientUnits="userSpaceOnUse">
<stop offset="0.1" stop-color="#FFBE00"/>
<stop offset="0.2117" stop-color="#FFB500"/>
<stop offset="0.3932" stop-color="#FF9D00"/>
<stop offset="0.52" stop-color="#FF8800"/>
<stop offset="1" stop-color="#FF2300"/>
</linearGradient>
</defs>
</svg>
