<svg width="349" height="80" viewBox="0 0 349 80" fill="none" xmlns="http://www.w3.org/2000/svg">
<path fill-rule="evenodd" clip-rule="evenodd" d="M285.467 34.3998L285.867 34.1332L285.467 33.8665C282.4 31.7332 279.2 28.2665 277.067 24.6665H284.933L285.6 17.4665H269.6C270.533 15.8665 271.2 14.3998 271.733 12.9332L271.867 12.6665L265.2 10.6665L265.067 10.9332C264.133 13.1998 262.933 15.3332 261.6 17.4665H250.667L249.867 24.6665H255.867C253.467 27.1998 250.667 29.4665 247.6 31.3332L249.6 12.2665H228.4L226.133 33.8665V34.2665H235.067L232.667 57.7332L230.267 58.3998L232.4 38.3998H226L223.6 59.9998C223.2 60.0665 222.767 60.1665 222.333 60.2665C221.9 60.3665 221.467 60.4665 221.067 60.5332H220.8L222 68.3998L222.4 68.2665C227.467 66.9332 237.467 64.1332 247.6 61.1998L247.867 61.0665L247.467 53.8665L240.133 55.7332L240.933 47.8665H246.267L247.067 40.5332H241.733L242.4 34.2665H247.2C248 36.1332 248.8 38.3998 249.067 39.4665L249.2 39.8665L249.6 39.5998C251.733 38.2665 254 36.6665 256.667 34.3998L256.4 37.1998H273.733L274.133 33.5998C276 36.3998 277.867 38.3998 279.733 39.9998L279.867 40.1332H248L247.333 47.0665H253.6C252.133 51.0665 250.667 54.6665 249.467 57.3332L249.2 57.7332H270.667C269.867 61.1998 269.067 63.1998 268.267 63.8665C267.467 64.3998 266.8 64.3998 265.333 64.3998H265.333C264.267 64.3998 258.8 64.3998 253.733 63.9998H253.067L253.467 64.5332C254.667 66.2665 255.467 68.9332 255.467 70.9332V71.1998H255.733C258 71.3332 260.4 71.4665 262.533 71.4665H262.533C264.267 71.4665 265.733 71.4665 266.933 71.3332C270.267 71.1998 272.267 70.6665 274 68.9332C276.133 67.0665 277.467 63.0665 279.067 54.1332C279.333 53.1998 279.6 51.3332 279.6 51.1998V50.7998H259.867L259.867 50.7995C260.4 49.4663 260.933 48.1331 261.333 47.0665H282.667L283.333 40.1332H280V39.9998C281.333 38.2665 283.867 35.5998 285.467 34.3998ZM271.867 30.6665H260.4C262.4 28.5332 264 26.5332 265.2 24.6665H269.067C269.867 26.6665 270.8 28.6665 271.867 30.6665ZM241.067 27.2L241.867 19.4666H234.533L233.733 27.2H241.067Z" fill="white"/>
<path d="M308.933 55.3332L308.133 47.7332L307.733 47.8665C306.667 48.2665 305.733 48.5332 304.667 48.9332C303.733 49.1998 302.933 49.5998 302 49.8665L303.6 33.1998H309.067L309.867 25.1998H304.4L305.867 10.6665H297.733L296.267 25.3332H290L289.2 33.3332H295.467L293.467 52.7998C290.667 53.7332 288.133 54.5332 286 55.1998L285.733 55.3332L287.6 63.8665L288 63.7332C294.133 61.4665 301.867 58.3998 308.667 55.7332L308.933 55.3332Z" fill="white"/>
<path fill-rule="evenodd" clip-rule="evenodd" d="M340.8 57.4666L340.4 56.9333L340.267 57.6C340 59.7333 339.733 61.6 339.6 62.4C339.577 62.4565 339.556 62.5111 339.535 62.5637L339.534 62.5668C339.309 63.1328 339.177 63.4666 338.933 63.4666C338.667 63.6 338.133 63.6 337.733 63.6H336C335.467 63.6 335.2 63.6 335.067 63.4666C334.933 63.3333 334.933 62.8 335.067 62.1333L335.867 54.4H342.533L344.533 34.1333H312.933L310.667 54.4H316C314.533 59.8666 311.867 62.9333 302 64.8L301.467 64.9333L301.867 65.3333C303.2 66.6666 304.667 69.4666 305.2 71.0666L305.333 71.3333L305.6 71.2C318.267 68.1333 322 62.6666 323.867 54.2666H327.867L327.067 61.7333C326.667 65.8666 327.2 67.3333 328.4 68.4C329.6 69.6 331.867 70 333.333 70H337.467C338.8 70 340.667 69.7333 341.6 69.3333C342.933 68.8 344 68 344.667 66.8C345.333 65.7333 345.867 63.2 346.267 60.5333V60.2666L346 60.1333C344.4 59.8666 341.867 58.5333 340.8 57.4666ZM335.067 46.8L334.8 48.9333H318.8L319.067 46.8H335.067ZM335.467 41.7334L335.733 39.6001H319.733L319.467 41.7334H335.467Z" fill="white"/>
<path fill-rule="evenodd" clip-rule="evenodd" d="M341.6 23.733C341.333 24.3997 340.933 25.0663 340.533 25.5997H348.533L347.867 32.533H310.533L311.2 25.5997H318.933C318.904 25.4524 318.874 25.3036 318.845 25.1538C318.606 23.9473 318.356 22.6819 318 21.733L317.867 21.4663L321.6 20.6663H313.333L314 13.8663H326.667C326.592 13.4161 326.474 13.0081 326.362 12.6185C326.275 12.3159 326.192 12.0245 326.133 11.733L325.867 10.7997L333.867 9.33301V9.73301C333.932 9.94938 334 10.1763 334.07 10.4092C334.433 11.6113 334.843 12.9728 335.067 13.8663H347.6L346.933 20.6663H338.533L342.933 21.4663L342.667 21.8663C342.467 22.1997 342.3 22.4997 342.133 22.7997C341.967 23.0997 341.8 23.3997 341.6 23.733ZM326.267 25.5997H333.067C333.867 23.9997 334.667 22.133 335.2 20.6663H324.933C325.467 22.2663 326 24.133 326.267 25.5997Z" fill="white"/>
<path d="M144.667 23.0665C142.667 28.6665 138.8 36.3998 135.733 41.3332L135.6 41.5998L142.667 44.7998L142.8 44.5332C145.6 40.5332 149.467 33.8665 153.6 26.3998L153.733 26.1332L144.933 22.6665L144.667 23.0665Z" fill="white"/>
<path d="M127.733 35.7337C129.733 27.7337 130.533 19.6004 131.467 10.8004V10.4004H122.133V10.6671C122 11.8671 121.867 13.0671 121.733 14.2671C119.6 36.0004 117.733 54.6671 91.6 64.1337L91.0667 64.2671L91.4667 64.6671C93.3333 66.2671 95.3333 69.0671 96.1333 71.0671L96.2667 71.3337L96.5333 71.2004C108.8 66.4004 117.467 59.0671 122.8 48.8004C127.067 60.2671 134.267 67.0671 146.133 70.5337L146.4 70.6671L146.533 70.4004C147.867 68.0004 150.533 64.8004 152.267 63.2004L152.667 62.8004L152.133 62.6671C138 59.6004 130.267 50.9337 127.733 35.7337Z" fill="white"/>
<path d="M102.133 44.6668V45.0668L111.2 41.4668V41.2001C110.533 36.1335 108.4 27.8668 106.667 21.7335V21.4668L98.1333 24.4001L98.2666 24.6668C99.7333 30.9335 101.6 39.4668 102.133 44.6668Z" fill="white"/>
<path d="M201.467 41.3336V40.9336H193.867L191.867 60.0003H199.467L201.467 41.3336Z" fill="white"/>
<path fill-rule="evenodd" clip-rule="evenodd" d="M219.6 37.0669H159.467L160.267 30.5336H173.733C173.329 29.8267 172.849 29.1198 172.408 28.4709C172.267 28.263 172.129 28.061 172 27.8669L171.733 27.4669L178.8 24.9336C178.133 23.7336 177.467 22.6669 176.8 21.7336L176.533 21.4669L178.667 20.2669H174C171.867 23.0669 169.467 25.8669 166.667 28.4003L166.4 28.5336L166.133 28.4003C164.667 27.0669 161.733 25.0669 160.133 24.1336L159.733 23.8669L160.133 23.6003C164.4 20.4003 168.8 14.9336 171.6 9.33359V9.06693L179.6 11.2003L179.467 11.6003C179.267 12.0003 179.067 12.3669 178.867 12.7336C178.667 13.1003 178.467 13.4669 178.267 13.8669H192.133L191.467 20.0003C194.267 16.9336 196.667 13.2003 198.267 9.33359V8.93359L206.267 10.9336L206.133 11.3336L204.933 13.7336H221.733L221.067 20.1336H212.267C213.067 21.3336 213.733 22.4003 214.133 23.2003L214.267 23.4669L208.533 27.0669L209.333 27.3336L209.067 27.7336C208.267 28.6669 207.467 29.6003 206.667 30.4003H220.267L219.6 37.0669ZM187.6 23.4668L188 23.2001C189.166 22.4231 190.08 21.3944 191.109 20.2363C191.139 20.2022 191.169 20.1679 191.2 20.1335H184.267C185.333 21.6001 186 23.0668 186.4 24.1335L186.533 24.4001L181.2 27.3335C181.273 27.4359 181.348 27.54 181.424 27.6453C182.037 28.4994 182.711 29.4359 183.067 30.2668H197.333C198.533 28.8001 199.867 26.9335 201.067 25.0668L201.2 24.9335L206.933 26.6668C206.267 25.3335 205.067 23.4668 204.133 22.2668L203.867 22.0001L206.667 20.2668H201.2C198.933 23.7335 196.4 26.4001 194.667 28.0001L194.4 28.1335L194.133 28.0001C192.667 26.8001 189.733 24.6668 188 23.7335L187.6 23.4668Z" fill="white"/>
<path d="M204.8 62.4004C204.8 63.067 204.667 63.2004 203.6 63.3337C200.533 63.3337 198 63.3337 195.733 63.2004H195.2L195.467 63.7337C196.533 65.467 197.6 68.5337 197.867 70.5337V70.8004H198.133C202.4 70.8004 205.867 70.667 208.667 69.467C211.733 68.267 212.533 66.0004 212.8 62.667L215.333 38.5337H207.2L204.8 62.4004Z" fill="white"/>
<path fill-rule="evenodd" clip-rule="evenodd" d="M162.8 50.9331C162.267 56.5331 161.067 62.3998 156.933 66.7998L156.667 67.0665L157.067 67.1998C158.4 67.9998 161.2 70.2665 162.133 71.4665L162.4 71.7331L162.667 71.4665C165.2 68.7998 167.2 65.4665 168.4 61.3331H178.933L178.8 63.0665C178.8 63.4665 178.667 63.5998 178.133 63.5998H173.6H173.067L173.2 63.9998C173.867 65.7331 174.4 68.3998 174.533 70.1331V70.3998H174.8C178.4 70.3998 181.2 70.2665 183.333 69.3331C185.733 68.2665 186.267 66.2665 186.667 63.1998L189.2 38.7998H164L162.8 50.9331ZM170.8 47.3333L171.067 44.9333H180.533L180.267 47.3333H170.8ZM179.467 55.5995L179.733 53.1995H170.133L169.733 55.5995H179.467Z" fill="white"/>
<g clip-path="url(#clip0_184_576)">
<path d="M68.9241 12.4276C68.9379 12.5241 68.9655 12.6207 68.9655 12.731C68.9379 16.869 67.669 29.3103 54.7448 42.2345C51.6965 45.2828 48.6069 47.7517 45.6138 49.7793C45.5172 54.8276 44.9241 59.6828 43.131 61.4897C38.8414 65.8207 31.9586 69.3793 29.3655 69.1862C28.4414 69.1172 29.2276 67.6828 29.8069 67.0207C33.0483 63.4621 34.8276 61.1034 34.7862 59.8207C34.7586 59.3793 34.2207 57.8621 33.5172 56.1517C29.4483 57.7241 26.7862 58.2069 26.7862 58.2069L21.9862 53.3931C21.9862 53.3931 22.4552 50.731 24.0414 46.6621C22.331 45.9448 20.8414 45.3655 20.3724 45.3517C19.1172 45.2966 16.7724 47.269 13.1724 50.3862C12.5103 50.9655 11.1034 51.6966 11.0345 50.7724C10.8414 48.2345 14.4 41.3793 18.7172 37.0621C20.5103 35.2414 25.3655 34.6483 30.4138 34.5931C32.4414 31.6 34.9103 28.4966 37.9724 25.4483C50.8965 12.5379 63.3517 11.269 67.4759 11.2276C67.5862 11.2276 67.6965 11.2552 67.7931 11.269C60.6069 4.28966 50.8 0 40 0C34.4552 0 29.1862 1.13103 24.3862 3.17241H36.3586C40.0414 3.17241 43.0207 6.16552 43.0207 9.83448C43.0207 11.669 42.2897 13.3379 41.0621 14.5517C39.8621 15.7517 38.2069 16.4966 36.3586 16.4966H36.2759C34.4414 16.4966 32.7724 17.2552 31.5724 18.4552C30.3586 19.669 29.6138 21.3379 29.6138 23.1586C29.6138 24.9793 28.8828 26.6621 27.6552 27.8759C26.4552 29.0759 24.8 29.8207 22.9517 29.8207H1.32414C0.455172 33.0621 0 36.469 0 39.9862C0 48.3448 2.56552 56.0966 6.95172 62.5241C9.76552 59.7793 12.4138 58.5241 13.9586 57.9862C14.7586 57.7103 15.0621 58.2483 14.6207 59.0069C13.2828 61.5448 10.7172 66.8138 12.0966 68.1517C13.4207 69.5034 18.6759 66.9517 21.2138 65.6138C21.9586 65.1862 22.5103 65.4897 22.2345 66.2759C21.6966 67.8207 20.4552 70.4414 17.7655 73.2552C24.1241 77.5172 31.7655 80 39.9862 80C48.2069 80 55.7517 77.5448 62.0828 73.3241H54.6621C52.4552 73.3241 50.6621 71.531 50.6621 69.3241C50.6621 67.1172 52.4552 65.3241 54.6621 65.3241H70.8965C72.1103 63.8345 73.2552 62.2759 74.2345 60.6345H68.3034C63.6828 60.6345 59.9172 56.869 59.9172 52.2207C59.9172 49.9035 60.8552 47.8069 62.3724 46.2897C63.8897 44.7724 65.9862 43.8207 68.3034 43.8207H68.5931C70.1379 43.8207 71.5448 43.2138 72.5517 42.1793C73.5586 41.1724 74.1931 39.7793 74.1931 38.2345C74.1931 36.6897 74.8276 35.2828 75.8345 34.2759C76.731 33.3655 77.931 32.7862 79.2828 32.6621C77.8483 24.8828 74.1379 17.9172 68.9103 12.4276H68.9241Z" fill="white"/>
<path fill-rule="evenodd" clip-rule="evenodd" d="M50.0276 35.6414C46.9793 35.6414 44.5103 33.1587 44.5103 30.138C44.5103 27.1173 46.9793 24.6069 50.0276 24.6069C53.0759 24.6069 55.531 27.0759 55.5448 30.1242C55.5448 33.1725 53.0621 35.6414 50.0276 35.6414Z" fill="white"/>
<path fill-rule="evenodd" clip-rule="evenodd" d="M21.2276 65.614C18.6897 66.9519 13.4207 69.5174 12.1104 68.1519C10.731 66.814 13.3104 61.5588 14.6345 59.0071C15.0759 58.2485 14.7724 57.7106 13.9724 57.9864C12.3724 58.5381 9.6138 59.8347 6.71725 62.7588C-0.262058 69.7105 -0.634472 77.283 1.15863 79.0899C2.97932 80.883 10.5379 80.4968 17.4897 73.5588C20.4 70.6347 21.6828 67.8899 22.2483 66.2761C22.5241 65.4899 21.9724 65.1864 21.2276 65.614Z" fill="url(#paint0_linear_184_576)"/>
<path opacity="0.55" d="M43.0207 9.83443C43.0207 11.6689 42.2896 13.3379 41.0621 14.5517C39.8621 15.7517 38.2069 16.4965 36.3586 16.4965H36.2758C34.4414 16.4965 32.7724 17.2551 31.5724 18.4551C30.3586 19.6689 29.6138 21.3379 29.6138 23.1586C29.6138 24.9793 28.8827 26.662 27.6552 27.8758C26.4552 29.0758 24.8 29.8206 22.9517 29.8206H1.32413C4.45516 17.7931 13.0896 7.95857 24.3862 3.17236H36.3586C40.0414 3.17236 43.0207 6.16547 43.0207 9.83443Z" fill="white"/>
<path opacity="0.55" d="M79.3241 32.6621C77.9724 32.7862 76.7586 33.3656 75.8759 34.2759C74.869 35.2828 74.2345 36.6759 74.2345 38.2345C74.2345 39.7931 73.6138 41.1725 72.5931 42.1793C71.5862 43.2 70.1793 43.8207 68.6345 43.8207H68.3448C66.0276 43.8207 63.931 44.7725 62.4138 46.2897C60.8965 47.8069 59.9586 49.9035 59.9586 52.2207C59.9586 56.869 63.7241 60.6345 68.3448 60.6345H74.2759C77.9172 54.6069 80.0138 47.5587 80.0138 40C80.0138 37.4897 79.7931 35.0345 79.3379 32.6621H79.3241Z" fill="white"/>
<path opacity="0.55" d="M50.6759 69.3242C50.6759 71.5311 52.469 73.3242 54.6759 73.3242H62.0966C65.4345 71.1173 68.4138 68.4139 70.9379 65.3242H54.6759C52.469 65.3242 50.6759 67.1173 50.6759 69.3242Z" fill="white"/>
</g>
<defs>
<linearGradient id="paint0_linear_184_576" x1="1.15863" y1="79.1036" x2="18.4552" y2="61.8071" gradientUnits="userSpaceOnUse">
<stop stop-color="white" stop-opacity="0.9"/>
<stop offset="0.36" stop-color="white" stop-opacity="0.47"/>
<stop offset="1" stop-color="white" stop-opacity="0.2"/>
</linearGradient>
<clipPath id="clip0_184_576">
<rect width="80" height="80" fill="white"/>
</clipPath>
</defs>
</svg>
