<svg width="27" height="26" xmlns="http://www.w3.org/2000/svg">
    <g fill="none" fill-rule="evenodd">
        <path d="M27 11.072C27 4.967 20.944 0 13.5 0 6.057 0 0 4.967 0 11.072c0 5.473 4.803 10.057 11.29 10.924.44.096 1.038.293 1.19.672.136.345.089.886.043 1.234l-.192 1.168c-.06.345-.272 1.35 1.169.736 1.44-.614 7.774-4.627 10.607-7.922C26.062 15.716 27 13.515 27 11.072" fill="#454F5B"/>
        <path d="M22.509 14.597H18.716a.26.26 0 0 1-.258-.26V8.382a.26.26 0 0 1 .258-.26H22.51a.26.26 0 0 1 .258.26v.968a.26.26 0 0 1-.258.26H19.93v1.005h2.578a.26.26 0 0 1 .258.26v.968a.26.26 0 0 1-.258.261H19.93v1.005h2.578a.26.26 0 0 1 .258.26v.968a.26.26 0 0 1-.258.26M8.48 14.597a.26.26 0 0 0 .257-.26v-.968a.26.26 0 0 0-.258-.26H5.902V8.382a.26.26 0 0 0-.258-.26h-.958a.26.26 0 0 0-.257.26v5.955c0 .144.115.26.257.26H8.48zM10.763 8.122h-.958a.26.26 0 0 0-.258.26v5.955c0 .144.116.26.258.26h.958a.26.26 0 0 0 .257-.26V8.382a.26.26 0 0 0-.257-.26M17.28 8.122h-.957a.26.26 0 0 0-.258.26v3.537l-2.695-3.68a.287.287 0 0 0-.021-.026l-.002-.002a.313.313 0 0 0-.015-.016l-.005-.005a.25.25 0 0 0-.014-.012l-.007-.005a.37.37 0 0 0-.036-.022l-.008-.004a.317.317 0 0 0-.015-.007l-.009-.003-.015-.005-.01-.002a.204.204 0 0 0-.015-.004l-.01-.001-.015-.002h-.013l-.01-.001H12.2a.26.26 0 0 0-.258.26v5.955c0 .144.115.26.258.26h.957a.26.26 0 0 0 .258-.26V10.8l2.699 3.684a.262.262 0 0 0 .066.066l.003.002a.23.23 0 0 0 .05.025l.007.004a.365.365 0 0 0 .018.005l.004.001a.26.26 0 0 0 .067.01h.952a.26.26 0 0 0 .258-.261V8.382a.26.26 0 0 0-.258-.26" fill="#EAEDF0"/>
    </g>
</svg>
